<svg width="202" height="202" viewBox="0 0 202 202" fill="none" xmlns="http://www.w3.org/2000/svg">
<path d="M0 86.4812V170.319C0 175.941 4.58445 180.676 10.4551 180.971C29.7161 181.958 71.0945 185.943 94.6875 201.961V96.7391C71.568 81.0762 31.5586 76.8547 11.7728 75.75C5.36168 75.3949 0 80.3266 0 86.4812ZM190.243 75.75C170.481 76.8736 130.55 81.0643 107.746 96.6957C107.352 96.7391 107.312 96.7785 107.312 96.8574V202C131 186.065 172.292 181.974 191.545 180.979C197.423 180.656 202 175.921 202 170.319V86.4812C202 80.3266 196.634 75.3949 190.243 75.75ZM138.875 37.875C138.875 16.9648 121.91 0 101 0C80.0898 0 63.125 16.9648 63.125 37.875C63.125 58.7852 80.0898 75.75 101 75.75C121.91 75.75 138.875 58.7852 138.875 37.875Z" fill="#30C0CD"/>
</svg>
