<svg width="202" height="202" viewBox="0 0 202 202" fill="none" xmlns="http://www.w3.org/2000/svg">
<path d="M131.237 25.4788C123.559 17.1897 112.836 12.625 101 12.625C89.101 12.625 78.3421 17.1621 70.7 25.3999C62.9751 33.7285 59.2113 45.0476 60.095 57.2702C61.8467 81.3839 80.1964 101 101 101C121.804 101 140.122 81.3878 141.901 57.278C142.797 45.1659 139.009 33.8705 131.237 25.4788Z" fill="#30C0CD"/>
<path d="M170.438 189.375H31.5626C29.7448 189.399 27.9447 189.017 26.2931 188.257C24.6415 187.498 23.18 186.379 22.0149 184.984C19.4504 181.918 18.4168 177.732 19.1822 173.499C22.512 155.027 32.904 139.51 49.2376 128.617C63.7484 118.947 82.1296 113.625 101 113.625C119.87 113.625 138.252 118.951 152.763 128.617C169.096 139.506 179.488 155.023 182.818 173.495C183.583 177.728 182.55 181.914 179.985 184.98C178.821 186.376 177.359 187.495 175.708 188.255C174.056 189.016 172.256 189.398 170.438 189.375Z" fill="#30C0CD"/>
</svg>
