<svg width="652" height="483" viewBox="0 0 652 483" fill="none" xmlns="http://www.w3.org/2000/svg">
<g clip-path="url(#clip0_2_81)">
<path d="M61.613 480.763H199.859V476.52C199.859 472.837 198.396 469.304 195.792 466.699C193.187 464.095 189.654 462.631 185.971 462.631H75.5014C71.8179 462.631 68.2854 464.095 65.6808 466.699C63.0762 469.304 61.613 472.837 61.613 476.52V480.763Z" fill="#E6E6E6"/>
<path d="M133.971 463.478L129.767 461.785C173.756 352.593 169.518 214.838 132.334 96.6685C127.916 82.977 127.598 68.2927 131.417 54.4224C135.236 40.5521 143.026 28.1008 153.829 18.6004C175.413 -0.660891 205.168 -5.3531 231.489 6.35361C257.469 17.9109 261.05 38.0421 261.05 58.0752H256.518C256.518 36.6908 251.948 20.4158 229.647 10.4953C204.978 -0.476079 177.084 3.92453 156.848 21.9829C146.701 30.9058 139.384 42.6005 135.796 55.628C132.209 68.6555 132.508 82.4476 136.657 95.3074C174.271 214.841 178.261 353.542 133.971 463.478Z" fill="#E6E6E6"/>
<path d="M257.651 124.935C248.889 124.935 241.787 117.832 241.787 109.07C241.787 100.308 248.889 93.2047 257.651 93.2047C266.413 93.2047 273.515 100.308 273.515 109.07C273.515 117.832 266.413 124.935 257.651 124.935Z" fill="#E6E6E6"/>
<path d="M282.083 136.727V106.667H277.409V136.727C276.069 137.269 274.958 138.261 274.269 139.532C273.579 140.803 273.353 142.275 273.629 143.695C273.905 145.114 274.667 146.394 275.783 147.314C276.899 148.233 278.3 148.736 279.746 148.736C281.193 148.736 282.594 148.233 283.71 147.314C284.826 146.394 285.587 145.114 285.864 143.695C286.14 142.275 285.914 140.803 285.224 139.532C284.534 138.261 283.424 137.269 282.083 136.727Z" fill="#E6E6E6"/>
<path d="M304.677 83.5722C304.67 76.6621 301.921 70.0372 297.035 65.151C292.149 60.2647 285.524 57.5162 278.615 57.5084H235.554C228.642 57.5084 222.013 60.2544 217.125 65.1423C212.237 70.0302 209.491 76.6597 209.491 83.5722C209.491 90.4848 212.237 97.1142 217.125 102.002C222.013 106.89 228.642 109.636 235.554 109.636H278.615C285.524 109.628 292.149 106.88 297.035 101.993C301.921 97.1073 304.67 90.4824 304.677 83.5722Z" fill="#30BFCD"/>
<path d="M365.348 244.976C361.024 189.661 338.919 163.306 353.073 146.779C366.631 130.948 404.822 134.218 429.349 149.409C495.503 190.384 519.739 353.691 434.609 433.48C353.714 509.299 200.402 485.016 166.33 422.959C158.381 408.479 152.065 383.096 163.7 367.723C192.587 329.557 297.611 398.686 344.306 355.448C371.979 329.824 367.72 275.333 365.348 244.976Z" fill="#3F3D56"/>
<path d="M314.779 217.495C316.385 218.235 317.64 219.571 318.277 221.222C318.913 222.872 318.88 224.706 318.185 226.332C318.038 226.66 317.865 226.976 317.666 227.276L331.865 246.236L324.78 256.826L308.137 228.75C306.958 227.831 306.116 226.546 305.744 225.098C305.371 223.65 305.488 222.119 306.077 220.745C306.419 219.966 306.912 219.262 307.527 218.673C308.141 218.085 308.866 217.623 309.659 217.314C310.452 217.006 311.298 216.856 312.148 216.875C312.999 216.893 313.838 217.079 314.617 217.421C314.671 217.445 314.725 217.47 314.779 217.495Z" fill="#FFB6B6"/>
<path d="M314.79 250.185C313.861 251.009 316.438 252.026 319.165 250.422C319.945 249.957 320.278 249.764 320.366 249.887C320.585 250.194 319.305 252.456 319.647 257.48C319.858 260.478 324.837 266.116 330.492 271.613C338.137 279.048 347.027 286.22 347.027 286.22L350.149 283.721L382.877 257.48L388.4 249.834C387.894 246.815 387.135 243.844 386.129 240.953C384.745 236.951 383.099 233.043 381.202 229.257C380.185 227.196 379.142 225.232 378.142 223.426L360.608 242.75L345.914 258.935C345.914 258.935 341.635 252.044 338.321 250.168C337.899 249.898 337.418 249.732 336.919 249.685C333.57 249.527 333.368 247.704 337.252 243.732C341.136 239.76 336.235 243.469 332.781 242.399C329.326 241.33 332.781 242.399 332.053 239.725C331.325 237.051 321.637 231.685 321.637 231.685L321.234 232.045L313.913 238.507L311.818 240.357C311.818 240.357 314.106 246.634 314.737 247.958C315.369 249.282 315.711 249.352 314.79 250.185Z" fill="#30BFCD"/>
<path d="M121.807 371.981L121.451 362.31L158.581 356.332L159.108 370.604L121.807 371.981Z" fill="#FFB6B6"/>
<path d="M128.548 374.892L128.9 359.408L122.28 359.652L111.594 345.338C111.066 344.631 110.326 344.111 109.482 343.854C108.638 343.597 107.734 343.617 106.902 343.91C106.07 344.204 105.354 344.756 104.858 345.485C104.361 346.215 104.111 347.084 104.144 347.965L104.822 366.36L111.487 369.288L104.985 370.768L105.241 377.703L128.548 374.892Z" fill="#2F2E41"/>
<path d="M330.784 375.746L213.177 378.728C213.177 378.728 162.39 381.662 150.474 373.91L137.909 372.323L137.228 353.865C137.228 353.865 144.912 353.922 149.329 351.863C153.747 349.805 150.677 347.286 154.889 349.763C159.101 352.24 158.656 352.537 161.913 351.399C165.169 350.261 314.507 327.498 314.507 327.498L330.784 375.746Z" fill="#2F2E41"/>
<path d="M175.809 367.736L168.97 360.89L192.124 331.252L202.218 341.358L175.809 367.736Z" fill="#FFB6B6"/>
<path d="M182.73 361.78L172.457 350.189L167.771 354.87L150.201 351.644C149.334 351.485 148.438 351.607 147.644 351.993C146.851 352.379 146.202 353.008 145.791 353.789C145.381 354.57 145.231 355.462 145.363 356.334C145.495 357.207 145.903 358.014 146.527 358.638L159.534 371.661L166.412 369.275L162.651 374.782L167.556 379.692L182.73 361.78Z" fill="#2F2E41"/>
<path d="M377.183 311.334L376.014 338.514C374.637 370.51 339.402 389.875 312.08 373.169C311.576 372.861 311.071 372.542 310.564 372.212C310.564 372.212 300.206 369.431 300.521 365.025C300.835 360.62 298.305 358.476 296.065 359.677C293.826 360.879 264.507 319.267 264.507 319.267C264.507 319.267 203.59 349.655 190.152 356.808C190.152 356.808 177.517 337.052 178.433 337.259C179.349 337.466 253.794 285.359 253.794 285.359C253.794 285.359 265.922 273.084 280.966 281.189C281.279 282.379 281.011 282.421 281.011 282.421L330.708 322.917L337.73 309.581L377.183 311.334Z" fill="#2F2E41"/>
<path d="M330.326 277.356C330.42 278.612 330.599 279.859 330.861 281.091C331.219 282.874 331.796 284.605 332.579 286.246C332.579 286.246 332.579 288.079 336.086 294.216C339.593 300.353 335.209 297.723 332.579 302.282C329.949 306.833 332.579 304.737 335.498 307.666C336.339 308.518 336.936 309.58 337.227 310.741C337.519 311.902 337.494 313.119 337.156 314.268C337.156 314.268 374.82 314.294 381.834 311.664C388.847 309.033 390.443 294.216 384.157 292.752C377.88 291.288 386.059 289.832 389.75 286.457C393.441 283.081 386.059 277.558 386.059 277.558C386.059 277.558 389.102 272.306 388.847 254.674C388.811 253.052 388.662 251.435 388.4 249.834C387.895 246.815 387.135 243.844 386.13 240.953C384.745 236.951 383.099 233.044 381.202 229.257C380.185 227.196 379.142 225.233 378.143 223.426C377.985 223.146 377.836 222.874 377.678 222.602C375.775 219.235 374.039 216.482 372.891 214.72C372.005 213.352 371.471 212.581 371.471 212.581L365.088 201.481L343.784 211.467L344.993 227.801L341.32 240.12L339.628 245.793L338.322 250.168L336.305 256.945C336.305 256.945 336.857 256.971 336.2 257.874C333.172 261.901 331.208 266.626 330.492 271.613C330.24 273.517 330.184 275.441 330.326 277.356Z" fill="#30BFCD"/>
<path d="M268.801 279.116L269.201 278.987L320.192 262.566L301.402 200.92C301.028 199.692 300.38 198.565 299.507 197.625C298.634 196.684 297.559 195.954 296.363 195.489C295.167 195.024 293.881 194.837 292.602 194.941C291.323 195.045 290.084 195.439 288.979 196.092L256.394 215.344C253.814 216.867 251.852 219.247 250.849 222.069C249.847 224.892 249.868 227.977 250.909 230.785L268.801 279.116Z" fill="#2F2E41"/>
<path d="M268.594 283.035L319.996 266.482L301.205 204.836C300.831 203.608 300.183 202.481 299.31 201.541C298.438 200.6 297.363 199.87 296.166 199.405C294.97 198.94 293.684 198.753 292.405 198.857C291.126 198.961 289.888 199.355 288.783 200.008L254.641 217.054C249.512 220.084 249.632 227.925 252.014 234.359L268.594 283.035Z" fill="#30BFCD"/>
<path d="M273.74 287.497C274.924 288.165 276.233 288.579 277.586 288.714C278.938 288.848 280.304 288.7 281.596 288.279L314.45 277.698C316.971 276.874 319.07 275.098 320.298 272.747C321.527 270.397 321.788 267.66 321.025 265.12L304.554 211.079C304.224 209.999 303.683 208.996 302.961 208.129C302.239 207.261 301.352 206.546 300.35 206.026C299.348 205.506 298.253 205.191 297.128 205.1C296.003 205.009 294.871 205.144 293.798 205.496L259.751 216.676C258.129 217.208 256.629 218.061 255.342 219.182C254.055 220.304 253.005 221.673 252.256 223.207C251.506 224.741 251.071 226.41 250.977 228.115C250.883 229.819 251.132 231.526 251.708 233.133L269.32 282.235C270.111 284.465 271.681 286.333 273.74 287.497Z" fill="#3F3D56"/>
<path d="M344.988 201.671C331.991 201.671 321.456 191.134 321.456 178.137C321.456 165.141 331.991 154.604 344.988 154.604C357.984 154.604 368.52 165.141 368.52 178.137C368.52 191.134 357.984 201.671 344.988 201.671Z" fill="#FFB6B6"/>
<path d="M424.563 202.025C422.403 206.211 418.862 209.521 414.541 211.394C412.816 212.18 411.003 212.754 409.14 213.104C408.613 211.016 407.77 209.02 406.641 207.187C407.017 209.253 407.017 211.371 406.641 213.437C403.803 213.669 400.948 213.315 398.253 212.396C395.606 211.495 393.206 209.991 391.242 208.001C389.278 206.012 387.805 203.592 386.939 200.934C385.065 194.696 387.084 188.033 387.243 181.522C387.407 175.01 384.315 167.222 377.851 166.416C372.928 165.801 373.537 166.279 369.999 169.756C374.947 175.253 362.885 199.598 356.412 198.522C352.753 197.914 350.06 195.008 349.336 195.109C345.63 204.186 356.779 217.059 347.937 221.284L348.593 220.416C353.221 212.77 339.526 199.856 344.154 192.21C345.445 190.071 346.786 187.563 345.988 185.197C345.23 182.947 341.393 182.235 340.584 184.283C341.9 179.589 338.226 174.081 333.346 173.602C329.011 173.174 329.261 174.41 325.128 175.537C324.6 173.757 323.839 172.054 322.865 170.472C323.195 172.276 323.235 174.121 322.985 175.938C321.495 176.116 319.987 175.797 318.696 175.03C314.879 172.742 314.766 166.835 317.388 163.241C320.014 159.645 324.414 157.87 328.659 156.527C328.698 147.55 352.852 143.252 357.295 151.598C357.752 144.841 365.498 140.288 372.171 141.436C378.844 142.584 384.108 147.935 387.317 153.899C390.526 159.858 392.119 166.531 394.469 172.879C396.818 179.227 400.176 185.556 405.801 189.323C411.426 193.084 419.785 193.426 424.481 188.55C425.552 190.632 426.117 192.937 426.132 195.278C426.146 197.619 425.608 199.93 424.563 202.025Z" fill="#2F2E41"/>
<path d="M400.417 309.64C399.93 309.251 399.402 308.916 398.842 308.643C389.834 304.16 361.824 292.523 339.923 293.001C297.782 293.919 244.152 340.429 256.633 371.661C266.131 395.427 313.347 408.948 347.813 398.134C396.098 382.984 415.156 321.393 400.417 309.64Z" fill="#3F3D56"/>
<path d="M575.361 480.852C589.131 478.254 601.319 416.216 574.228 385.663C564.945 375.194 553.367 370.638 537.966 366.398C449.322 341.993 381.712 365.252 372.626 370.931C363.561 376.597 347.669 461.969 367.991 474.053C379.425 480.852 402.089 484.252 413.318 476.319C429.84 464.647 402.107 434.372 414.451 413.993C428.459 390.867 502.221 383.078 539.202 406.06C578.657 430.581 497.275 495.584 575.361 480.852Z" fill="#F2F2F2"/>
<path d="M483.297 375.374H535.903C548.889 362.928 558.174 350.933 550.741 340.977C550.741 338.115 549.604 335.37 547.58 333.346C545.556 331.322 542.812 330.185 539.95 330.185H479.25C476.388 330.185 473.644 331.322 471.62 333.346C469.596 335.37 468.459 338.115 468.459 340.977C465.629 352.322 470.686 363.789 483.297 375.374Z" fill="#CCCCCC"/>
<path d="M492.745 316.6C493.244 316.623 493.738 316.492 494.16 316.225C494.582 315.957 494.912 315.567 495.105 315.106C495.297 314.645 495.344 314.136 495.238 313.647C495.131 313.159 494.878 312.715 494.511 312.376L494.344 311.712C494.366 311.659 494.388 311.606 494.41 311.553C494.913 310.365 495.755 309.352 496.832 308.642C497.908 307.932 499.171 307.555 500.461 307.56C501.75 307.565 503.01 307.951 504.081 308.669C505.152 309.387 505.987 310.406 506.481 311.598C508.456 316.353 510.969 321.116 511.588 326.144C511.861 328.367 511.746 330.62 511.249 332.803C515.886 322.687 518.294 311.692 518.309 300.564C518.31 297.772 518.155 294.982 517.844 292.206C517.588 289.931 517.232 287.673 516.776 285.43C514.291 273.262 508.955 261.856 501.206 252.151C497.455 250.104 494.422 246.958 492.515 243.134C491.824 241.76 491.336 240.293 491.065 238.778C491.489 238.834 492.661 232.39 492.342 231.995C492.931 231.1 493.987 230.655 494.63 229.782C497.833 225.44 502.245 226.198 504.549 232.099C509.469 234.582 509.517 238.701 506.498 242.662C504.577 245.183 504.313 248.593 502.627 251.291C502.801 251.513 502.981 251.728 503.155 251.95C506.324 256.026 509.087 260.403 511.403 265.017C510.839 259.847 511.512 254.618 513.364 249.758C515.241 245.229 518.76 241.415 521.858 237.5C525.58 232.797 533.212 234.849 533.868 240.811C533.875 240.869 533.881 240.926 533.887 240.984C533.427 241.244 532.976 241.519 532.535 241.811C531.981 242.181 531.552 242.709 531.304 243.327C531.056 243.945 531 244.624 531.144 245.274C531.288 245.925 531.625 246.516 532.111 246.972C532.597 247.427 533.21 247.725 533.868 247.826L533.935 247.837C533.771 249.496 533.482 251.14 533.068 252.754C537.043 268.128 528.461 273.727 516.208 273.979C515.937 274.117 515.673 274.256 515.403 274.388C517.73 280.982 519.189 287.851 519.745 294.821C520.059 298.934 520.041 303.065 519.689 307.174L519.71 307.029C520.598 302.459 523.036 298.336 526.611 295.355C531.922 290.993 539.425 289.386 545.154 285.879C545.763 285.488 546.471 285.28 547.195 285.278C547.918 285.276 548.627 285.481 549.238 285.869C549.849 286.257 550.336 286.812 550.642 287.468C550.948 288.123 551.06 288.853 550.965 289.57C550.957 289.621 550.95 289.672 550.942 289.723C550.088 290.071 549.256 290.472 548.452 290.923C547.992 291.183 547.541 291.459 547.1 291.75C546.546 292.12 546.117 292.649 545.869 293.267C545.621 293.885 545.565 294.563 545.709 295.214C545.853 295.864 546.191 296.455 546.677 296.911C547.163 297.366 547.775 297.664 548.433 297.766L548.5 297.776C548.549 297.783 548.591 297.79 548.639 297.797C547.18 301.281 545.132 304.489 542.584 307.278C540.099 320.699 529.423 321.972 518.004 318.064H517.997C516.744 323.509 514.929 328.808 512.58 333.878H493.229C493.16 333.663 493.098 333.441 493.035 333.226C494.826 333.339 496.625 333.231 498.39 332.907C496.954 331.145 495.518 329.37 494.083 327.608C494.05 327.575 494.02 327.54 493.992 327.504C493.264 326.602 492.529 325.707 491.801 324.806L491.8 324.805C491.761 322.041 492.079 319.283 492.744 316.6L492.745 316.6Z" fill="#CCCCCC"/>
<path d="M426.743 372.555C426.422 373.49 425.813 374.299 425.004 374.866C424.195 375.432 423.227 375.728 422.239 375.711L402.94 375.214C401.945 375.195 400.983 374.854 400.198 374.242C399.412 373.631 398.846 372.781 398.583 371.821L395.852 342.618C394.884 343.057 393.829 343.273 392.765 343.252C390.899 343.205 389.128 342.419 387.842 341.066C386.556 339.714 385.859 337.905 385.906 336.039C385.953 334.173 386.739 332.402 388.092 331.116C389.444 329.829 391.252 329.133 393.118 329.18C393.544 329.179 393.967 329.223 394.383 329.311C394.835 328.822 395.385 328.433 395.996 328.169C396.608 327.906 397.268 327.773 397.934 327.779L427.619 328.546C427.866 328.555 428.111 328.585 428.352 328.637C429.003 328.758 429.62 329.018 430.163 329.398C430.705 329.778 431.16 330.269 431.496 330.84C431.832 331.41 432.043 332.046 432.113 332.705C432.183 333.363 432.111 334.029 431.902 334.658L426.743 372.555ZM395.292 340.635L393.349 333.676C393.128 332.872 393.123 332.024 393.334 331.217C393.24 331.217 393.157 331.172 393.062 331.172C391.73 331.145 390.441 331.647 389.479 332.568C388.516 333.49 387.958 334.755 387.927 336.087C387.896 337.42 388.394 338.71 389.312 339.675C390.231 340.641 391.495 341.203 392.827 341.238C393.688 341.265 394.541 341.056 395.292 340.635Z" fill="#CCCCCC"/>
<path d="M428.352 328.637C427.719 332.253 420.609 334.796 412.059 334.354C404.197 333.991 397.768 331.231 396.59 327.959C397.026 327.83 397.479 327.769 397.934 327.779L427.619 328.546C427.866 328.555 428.111 328.586 428.352 328.637Z" fill="white"/>
<path d="M650.966 482.222L1.03357 482.488C0.75946 482.488 0.496582 482.379 0.302734 482.186C0.108887 481.992 0 481.729 0 481.455C0 481.181 0.108887 480.918 0.302734 480.724C0.496582 480.53 0.75946 480.421 1.03357 480.421L650.966 480.154C651.241 480.154 651.503 480.263 651.697 480.457C651.891 480.651 652 480.914 652 481.188C652 481.462 651.891 481.725 651.697 481.919C651.503 482.113 651.241 482.222 650.966 482.222Z" fill="#CACACA"/>
<path d="M286.439 251.228C288.207 251.292 289.879 252.044 291.101 253.323C292.323 254.602 292.997 256.307 292.981 258.075C292.972 258.435 292.933 258.793 292.865 259.146L313.263 271.189L310.794 283.689L284.636 264.171C283.193 263.775 281.923 262.914 281.022 261.72C280.121 260.526 279.641 259.068 279.656 257.573C279.673 256.722 279.857 255.883 280.198 255.103C280.539 254.324 281.03 253.619 281.643 253.029C282.257 252.439 282.98 251.976 283.773 251.666C284.565 251.356 285.411 251.205 286.262 251.222C286.321 251.223 286.38 251.225 286.439 251.228Z" fill="#FFB6B6"/>
<path d="M303.148 279.937C303.694 279.206 303.929 278.9 304.053 278.984C304.372 279.177 304.065 281.759 306.311 286.26C309.474 292.584 342.633 302.27 342.633 302.27L346.715 294.795L364.673 261.948L370.862 235.62C371.079 234.702 371.184 233.761 371.176 232.818C365.657 228.934 359.796 225.561 353.666 222.739C351.217 224.129 349.349 226.354 348.406 229.007L336.044 263.668L331.112 277.506C331.112 277.506 322.411 271.284 319.254 272.426C316.103 273.576 315.208 271.964 317.268 266.806C319.327 261.647 316.236 266.957 312.638 267.295C309.033 267.637 312.638 267.295 310.935 265.106C309.232 262.917 298.223 261.685 298.223 261.685L297.989 262.174L293.723 270.95L292.501 273.472C292.501 273.472 297.024 278.379 298.116 279.357C299.212 280.342 299.551 280.274 299.014 281.397C298.484 282.514 301.253 282.463 303.148 279.937Z" fill="#30BFCD"/>
</g>
<defs>
<clipPath id="clip0_2_81">
<rect width="652" height="483" fill="white" transform="matrix(-1 0 0 1 652 0)"/>
</clipPath>
</defs>
</svg>
